<svg xmlns="http://www.w3.org/2000/svg" viewBox="0 0 1608.2 289"><defs><style>.cls-1{fill:#0c62f3;}.cls-2{fill:#fff;}</style></defs><g id="Layer_2" data-name="Layer 2"><g id="Layer_1-2" data-name="Layer 1"><path class="cls-1" d="M358.7,219.2h50.2V62.5H358.7Zm75.7,0h43.2V155.9c0-13.6,6.4-20,17.1-20s14.5,5.9,14.5,17.6v65.7h43.2V143.8c0-28.5-15.2-42.3-36.9-42.3-19.3,0-31.5,9.4-37.9,21.5V104.6H434.4ZM642.2,102.6l15.4,56.8H626.7ZM564,219.2h46.2l7-26h49.6l7.2,26h52.6L677.5,62.5H613.3Zm237.1-30c-13.1,0-20.1-9-20.1-26.7v-1.8c0-17.5,7.2-27.2,19.9-27.2s20.4,8.8,20.4,27.2v1.8C821.3,180,814.1,189.2,801.1,189.2Zm-62.2,68.2H782V202.8c5.7,11.2,18,19.3,34.9,19.3,26.1,0,48.2-19.1,48.2-59.2v-1.8c0-40.1-21.9-59.6-48-59.6-17.3,0-28.7,9-35.1,19.7V104.6H738.9Zm204-68.2c-13.2,0-20.2-9-20.2-26.7v-1.8c0-17.5,7.2-27.2,19.9-27.2s20.4,8.8,20.4,27.2v1.8C963,180,955.8,189.2,942.9,189.2Zm-62.3,68.2h43.2V202.8c5.7,11.2,18,19.3,34.8,19.3,26.1,0,48.3-19.1,48.3-59.2v-1.8c0-40.1-21.9-59.6-48-59.6-17.4,0-28.8,9-35.1,19.7V104.6H880.6Zm204.6-35.3c42.1,0,64.9-24.1,64.9-53.3,0-34.8-21.9-44.9-61.3-49.1-17.4-2.2-22-5.7-22-13.1s5.3-11.4,15.6-11.4,16,5.4,17.1,15.1h46c-2.6-34.2-24.3-50-63.1-50s-62.7,21-62.7,50c0,32.2,15.3,45.4,60.5,50.4,16.9,2.4,22.4,5,22.4,13.4s-5.7,12.9-17.4,12.9c-16.2,0-21-8.1-21.9-18h-47.1C1017.3,204.3,1041,222.1,1085.2,222.1Zm128.2-.2a84.5,84.5,0,0,0,22.8-3.3V186.1a28.5,28.5,0,0,1-10.8,1.8c-7,0-11.2-3.3-11.2-11.2V133.5h22V104.6h-22V81.1H1171v23.5h-13.3v28.9H1171v47.4C1171,209.6,1186.4,221.9,1213.4,221.9Zm97.4.2c35.7,0,63.8-22.2,63.8-59.9v-1.7c0-36.8-27.8-59-63.6-59s-64,22.8-64,60.1v1.7C1247,201,1275.1,222.1,1310.8,222.1Zm.2-31.8c-13.8,0-20.4-9.6-20.4-28.3v-1.7c0-18,7.3-27,20.4-27s19.8,9.6,19.8,27.6v1.6C1330.8,180.7,1324.2,190.3,1311,190.3Zm78.7,28.9h43.2V166.4c0-16.4,13-24.3,36.9-23V103c-17.1-.2-29.6,7.1-36.9,24.8V104.6h-43.2ZM1506,257.4h41l61.2-152.8h-40.8l-20.2,57.2-21.7-57.2h-46.7l45.8,103.2Z"/><circle class="cls-1" cx="144.5" cy="144.5" r="144.5"/><ellipse class="cls-2" cx="142.3" cy="146.8" rx="95.7" ry="90.9"/></g></g></svg>